<svg width="50" height="50" viewBox="0 0 50 50" fill="none" xmlns="http://www.w3.org/2000/svg">
<rect width="50" height="50" fill="white"/>
<path d="M19 26C19 28.5964 19.8421 31.1228 21.4 33.2C21.7183 33.6243 22.1921 33.9049 22.7172 33.9799C23.2423 34.0549 23.7757 33.9183 24.2 33.6C24.6243 33.2817 24.9049 32.8079 24.9799 32.2828C25.0549 31.7577 24.9183 31.2243 24.6 30.8C23.5614 29.4152 23 27.731 23 26M21 18V26M24 18C27.0414 18.0783 30.0139 17.0875 32.4 15.2C32.5486 15.0886 32.7252 15.0207 32.9102 15.004C33.0952 14.9874 33.2811 15.0225 33.4472 15.1056C33.6133 15.1886 33.753 15.3163 33.8507 15.4743C33.9483 15.6322 34 15.8143 34 16V28C34 28.1857 33.9483 28.3678 33.8507 28.5257C33.753 28.6837 33.6133 28.8114 33.4472 28.8944C33.2811 28.9775 33.0952 29.0126 32.9102 28.996C32.7252 28.9793 32.5486 28.9114 32.4 28.8C30.0139 26.9125 27.0414 25.9217 24 26H18C17.4696 26 16.9609 25.7893 16.5858 25.4142C16.2107 25.0391 16 24.5304 16 24V20C16 19.4696 16.2107 18.9609 16.5858 18.5858C16.9609 18.2107 17.4696 18 18 18H24Z" stroke="#EE0707" stroke-width="2" stroke-linecap="round" stroke-linejoin="round"/>
</svg>
